<mxfile host="app.diagrams.net" modified="2023-06-01T14:05:17.256Z" agent="Mozilla/5.0 (Windows NT 10.0; Win64; x64) AppleWebKit/537.36 (KHTML, like Gecko) Chrome/113.0.0.0 Safari/537.36" version="21.3.6" etag="XPnf3O4Jl4FbhKFuOc1v" type="github">
  <diagram name="페이지-1" id="Z0yq0FAjPM_8DJlLkuMw">
    <mxGraphModel>
      <root>
        <mxCell id="0" />
        <mxCell id="1" parent="0" />
      </root>
    </mxGraphModel>
  </diagram>
</mxfile>
